<svg xmlns="http://www.w3.org/2000/svg" width="24" height="24" viewBox="0 0 24 24" fill="none" transform="matrix(1, 0, 0, 1, 0, 0)">
<mask id="mask0_8_2852" style="mask-type:alpha" maskUnits="userSpaceOnUse" x="0" y="0" width="24" height="24" fill="#12b2b3">
<rect width="24" height="24" fill="#D9D9D9"/>
</mask>
<g mask="url(#mask0_8_2852)">
<path d="M18.9288 20.5L13.4153 14.9865L14.9961 13.4058L20.5095 18.9192L18.9288 20.5ZM5.08073 20.5L3.49998 18.9192L10.4288 11.9904L8.09418 9.66535L7.4711 10.2884L6.35958 9.16727V11.0922L5.7365 11.7153L2.91345 8.89227L3.53653 8.2692H5.4615L4.35575 7.17305L7.21338 4.3154C7.49543 4.03337 7.80088 3.82697 8.12973 3.6962C8.45856 3.56542 8.80054 3.50002 9.15568 3.50002C9.51079 3.50002 9.85278 3.56542 10.1816 3.6962C10.5105 3.82697 10.8159 4.03337 11.098 4.3154L9.1249 6.28847L10.298 7.46152L9.6749 8.0846L12.0096 10.4096L14.4134 8.0058C14.3019 7.80323 14.2205 7.59393 14.1692 7.3779C14.1179 7.16188 14.0923 6.93464 14.0923 6.69617C14.0923 5.79617 14.4025 5.03593 15.023 4.41543C15.6435 3.79491 16.4038 3.48465 17.3038 3.48465C17.5153 3.48465 17.7176 3.50324 17.9105 3.54043C18.1035 3.57761 18.2974 3.63978 18.4922 3.72695L16.2192 6.00002L17.9999 7.78078L20.273 5.50773C20.3704 5.70259 20.4352 5.8965 20.4672 6.08945C20.4993 6.2824 20.5153 6.48464 20.5153 6.69617C20.5153 7.59616 20.205 8.35641 19.5845 8.97693C18.964 9.59743 18.2038 9.90767 17.3038 9.90767C17.0653 9.90767 16.8381 9.8846 16.6221 9.83845C16.406 9.7923 16.1967 9.70832 15.9942 9.58652L5.08073 20.5Z" fill="#12b2b3"/>
</g>
</svg>