<svg width="24" height="24" viewBox="0 0 24 24" fill="none" xmlns="http://www.w3.org/2000/svg">
<mask id="mask0_11_2941" style="mask-type:alpha" maskUnits="userSpaceOnUse" x="0" y="0" width="24" height="24">
<rect width="24" height="24" fill="#D9D9D9"/>
</mask>
<g mask="url(#mask0_11_2941)">
<path d="M12 15.7885L7.73082 11.5193L8.78465 10.4347L11.25 12.9001V4.50003H12.75V12.9001L15.2153 10.4347L16.2692 11.5193L12 15.7885ZM6.30772 19.5C5.80259 19.5 5.37502 19.325 5.02502 18.975C4.67502 18.625 4.50002 18.1974 4.50002 17.6923V14.9808H6V17.6923C6 17.7692 6.03205 17.8397 6.09615 17.9039C6.16026 17.968 6.23079 18 6.30772 18H17.6923C17.7692 18 17.8397 17.968 17.9038 17.9039C17.9679 17.8397 18 17.7692 18 17.6923V14.9808H19.5V17.6923C19.5 18.1974 19.325 18.625 18.975 18.975C18.625 19.325 18.1974 19.5 17.6923 19.5H6.30772Z" fill="#0D8182"/>
</g>
</svg>
