<svg width="24" height="24" viewBox="0 0 24 24" fill="none" xmlns="http://www.w3.org/2000/svg">
<mask id="mask0_11_2938" style="mask-type:alpha" maskUnits="userSpaceOnUse" x="0" y="0" width="24" height="24">
<rect width="24" height="24" fill="#D9D9D9"/>
</mask>
<g mask="url(#mask0_11_2938)">
<path d="M16 8.30771V5.30771H8V8.30771H6.50003V3.80774H17.5V8.30771H16ZM17.8077 12.3077C18.091 12.3077 18.3285 12.2118 18.5202 12.0202C18.7118 11.8285 18.8077 11.591 18.8077 11.3077C18.8077 11.0243 18.7118 10.7868 18.5202 10.5952C18.3285 10.4035 18.091 10.3077 17.8077 10.3077C17.5243 10.3077 17.2868 10.4035 17.0952 10.5952C16.9035 10.7868 16.8077 11.0243 16.8077 11.3077C16.8077 11.591 16.9035 11.8285 17.0952 12.0202C17.2868 12.2118 17.5243 12.3077 17.8077 12.3077ZM16 19V14.7307H8V19H16ZM17.5 20.5H6.50003V16.5H2.78853V10.8077C2.78853 10.0993 3.03051 9.50561 3.51448 9.02644C3.99845 8.54729 4.58978 8.30771 5.28848 8.30771H18.7115C19.4198 8.30771 20.0136 8.54729 20.4928 9.02644C20.9719 9.50561 21.2115 10.0993 21.2115 10.8077V16.5H17.5V20.5ZM19.7115 15V10.8077C19.7115 10.5243 19.6157 10.2868 19.424 10.0952C19.2324 9.9035 18.9949 9.80766 18.7115 9.80766H5.28848C5.00515 9.80766 4.76765 9.9035 4.57598 10.0952C4.38431 10.2868 4.28848 10.5243 4.28848 10.8077V15H6.50003V13.2308H17.5V15H19.7115Z" fill="#0D8182"/>
</g>
</svg>
