<svg xmlns="http://www.w3.org/2000/svg" width="24" height="24" viewBox="0 0 24 24" fill="none">
<mask id="mask0_8_2792" style="mask-type:alpha" maskUnits="userSpaceOnUse" x="0" y="0" width="24" height="24" fill="#000000">
<rect width="24" height="24" fill="#D9D9D9"/>
</mask>
<g mask="url(#mask0_8_2792)">
<path d="M5.99997 21.5C5.30127 21.5 4.70993 21.258 4.22595 20.774C3.74198 20.29 3.5 19.7002 3.5 19.0045V16.5H6.5V2.69235L7.88462 3.88465L9.28845 2.69235L10.6923 3.88465L12.0961 2.69235L13.5 3.88465L14.9038 2.69235L16.3077 3.88465L17.7115 2.69235L19.1153 3.88465L20.5 2.69235V19C20.5 19.6987 20.258 20.29 19.774 20.774C19.29 21.258 18.6987 21.5 18 21.5H5.99997ZM18 20C18.2833 20 18.5208 19.9042 18.7125 19.7125C18.9041 19.5208 19 19.2833 19 19V5H7.99998V16.5H17V19C17 19.2833 17.0958 19.5208 17.2875 19.7125C17.4791 19.9042 17.7166 20 18 20ZM9.1923 8.74998V7.25003H14.8654V8.74998H9.1923ZM9.1923 11.75V10.25H14.8654V11.75H9.1923ZM16.9423 8.8846C16.6974 8.8846 16.4888 8.79839 16.3163 8.62595C16.1439 8.45352 16.0577 8.24487 16.0577 8C16.0577 7.75514 16.1439 7.54649 16.3163 7.37405C16.4888 7.20162 16.6974 7.1154 16.9423 7.1154C17.1871 7.1154 17.3958 7.20162 17.5682 7.37405C17.7407 7.54649 17.8269 7.75514 17.8269 8C17.8269 8.24487 17.7407 8.45352 17.5682 8.62595C17.3958 8.79839 17.1871 8.8846 16.9423 8.8846ZM16.9423 11.8846C16.6974 11.8846 16.4888 11.7984 16.3163 11.626C16.1439 11.4535 16.0577 11.2449 16.0577 11C16.0577 10.7551 16.1439 10.5465 16.3163 10.3741C16.4888 10.2016 16.6974 10.1154 16.9423 10.1154C17.1871 10.1154 17.3958 10.2016 17.5682 10.3741C17.7407 10.5465 17.8269 10.7551 17.8269 11C17.8269 11.2449 17.7407 11.4535 17.5682 11.626C17.3958 11.7984 17.1871 11.8846 16.9423 11.8846ZM5.99997 20H15.5V18H4.99997V19C4.99997 19.2833 5.09581 19.5208 5.28747 19.7125C5.47914 19.9042 5.71664 20 5.99997 20Z" fill="#12b2b3"/>
</g>
</svg>