<svg width="24" height="24" viewBox="0 0 24 24" fill="none" xmlns="http://www.w3.org/2000/svg">
<mask id="mask0_8_2887" style="mask-type:alpha" maskUnits="userSpaceOnUse" x="0" y="0" width="24" height="24">
<rect width="24" height="24" fill="#D9D9D9"/>
</mask>
<g mask="url(#mask0_8_2887)">
<path d="M10.9712 11.6154L17.6808 4.8962C17.8359 4.74107 18.0116 4.6635 18.2077 4.6635C18.4039 4.6635 18.5795 4.74107 18.7346 4.8962C18.8898 5.05132 18.9673 5.22695 18.9673 5.4231C18.9673 5.61925 18.8898 5.79489 18.7346 5.95L12.0404 12.6596L10.9712 11.6154ZM13.3693 14.0039L19.3635 7.99425C19.5186 7.83914 19.6968 7.76158 19.8981 7.76158C20.0994 7.76158 20.2776 7.83914 20.4327 7.99425C20.5878 8.14939 20.6654 8.32758 20.6654 8.52885C20.6654 8.73013 20.5878 8.90834 20.4327 9.06348L14.4289 15.0577L13.3693 14.0039ZM5.4866 18.4942C4.05968 17.0673 3.34782 15.3545 3.35102 13.3558C3.35424 11.3571 4.07251 9.64106 5.50582 8.20773L8.43852 5.27503L9.67312 6.51925C9.82184 6.66797 9.94107 6.82727 10.0308 6.99715C10.1206 7.16702 10.1943 7.34747 10.252 7.5385L13.9135 3.86158C14.0686 3.70646 14.2468 3.6289 14.4481 3.6289C14.6494 3.6289 14.8276 3.70646 14.9827 3.86158C15.1378 4.01671 15.2154 4.19491 15.2154 4.39618C15.2154 4.59746 15.1378 4.77566 14.9827 4.93078L10.6481 9.2654L8.80195 11.1058L9.28657 11.5904C9.98914 12.2929 10.3302 13.1359 10.3096 14.1192C10.2891 15.1025 9.92246 15.9506 9.20965 16.6634L9.1135 16.7596L8.0539 15.7058L8.14045 15.6096C8.55583 15.1942 8.77635 14.7 8.802 14.1269C8.82763 13.5538 8.63276 13.0596 8.21737 12.6442L7.31162 11.7539C7.13086 11.5731 7.04047 11.358 7.04047 11.1087C7.04047 10.8593 7.13086 10.6442 7.31162 10.4635L8.58277 9.21733C8.81482 8.98528 8.93085 8.70611 8.93085 8.37983C8.93085 8.05353 8.81482 7.77435 8.58277 7.5423L8.43852 7.39805L6.55965 9.26733C5.41991 10.4071 4.84524 11.7692 4.83562 13.3539C4.82601 14.9385 5.39106 16.3007 6.5308 17.4404C7.67055 18.5801 9.04011 19.15 10.6395 19.15C12.2388 19.15 13.6084 18.5801 14.7481 17.4404L20.3962 11.777C20.5513 11.6218 20.7295 11.5443 20.9308 11.5443C21.1321 11.5443 21.3103 11.6218 21.4654 11.777C21.6205 11.9321 21.6981 12.1103 21.6981 12.3116C21.6981 12.5128 21.6205 12.691 21.4654 12.8462L15.7923 18.4942C14.359 19.9275 12.6414 20.6442 10.6395 20.6442C8.63756 20.6442 6.91993 19.9275 5.4866 18.4942ZM16.6346 22.4L16.625 20.8846C17.802 20.8846 18.8061 20.4689 19.6375 19.6375C20.4689 18.8061 20.8846 17.8019 20.8846 16.625L22.4 16.6346C22.4 18.2307 21.8381 19.5907 20.7144 20.7144C19.5907 21.8381 18.2308 22.4 16.6346 22.4ZM1.6001 7.3654C1.6001 5.76927 2.16196 4.40934 3.28567 3.28563C4.40939 2.16191 5.76931 1.60005 7.36545 1.60005L7.37507 3.1154C6.19814 3.1154 5.19397 3.53111 4.36257 4.36253C3.53116 5.19393 3.11545 6.19809 3.11545 7.37503L1.6001 7.3654Z" fill="#12112C"/>
</g>
</svg>
